<svg width="852" height="719" xmlns="http://www.w3.org/2000/svg" xmlns:xlink="http://www.w3.org/1999/xlink" overflow="hidden"><defs><clipPath id="clip0"><rect x="1249" y="1481" width="852" height="719"/></clipPath></defs><g clip-path="url(#clip0)" transform="translate(-1249 -1481)"><path d="M1433.5 1696.5 1884.91 1966.99" stroke="#FF0000" stroke-width="3.4375" stroke-miterlimit="8" fill="none" fill-rule="evenodd"/><path d="M0 0 451.41 270.488" stroke="#7030A0" stroke-width="3.4375" stroke-miterlimit="8" fill="none" fill-rule="evenodd" transform="matrix(-1 0 0 1 1882.91 1708.5)"/><path d="M1434 1481 1434 1950.24" stroke="#BFBFBF" stroke-width="2.29167" stroke-miterlimit="8" fill="none" fill-rule="evenodd"/><path d="M1884 1481 1884 1950.24" stroke="#BFBFBF" stroke-width="2.29167" stroke-miterlimit="8" fill="none" fill-rule="evenodd"/><path d="M1254 2150.85 1414.42 2150.85 1414.42 2153.15 1254 2153.15ZM1409.83 2138.25 1437.33 2152 1409.83 2165.75Z"/><text font-family="Cambria,Cambria_MSFontService,sans-serif" font-weight="400" font-size="64" transform="matrix(1 0 0 1 1362.18 2146)">x</text><path d="M0 0 487.917 0.633727" stroke="#8FAADC" stroke-width="10.3125" stroke-miterlimit="8" fill="none" fill-rule="evenodd" transform="matrix(1 0 0 -1 1424 1978.63)"/><path d="M1409.5 1978C1409.5 1962.81 1421.59 1950.5 1436.5 1950.5 1451.41 1950.5 1463.5 1962.81 1463.5 1978 1463.5 1993.19 1451.41 2005.5 1436.5 2005.5 1421.59 2005.5 1409.5 1993.19 1409.5 1978Z" stroke="#000000" stroke-width="4.58333" stroke-miterlimit="8" fill-rule="evenodd"/><path d="M1857.5 1978C1857.5 1962.81 1869.81 1950.5 1885 1950.5 1900.19 1950.5 1912.5 1962.81 1912.5 1978 1912.5 1993.19 1900.19 2005.5 1885 2005.5 1869.81 2005.5 1857.5 1993.19 1857.5 1978Z" stroke="#000000" stroke-width="4.58333" stroke-miterlimit="8" fill-rule="evenodd"/><text font-family="Cambria,Cambria_MSFontService,sans-serif" font-weight="400" font-size="64" transform="matrix(1 0 0 1 1415.4 2077)">x<tspan font-size="43" x="30.9375" y="15">1</tspan><tspan font-size="64" x="452.146" y="0">x</tspan><tspan font-size="43" x="483.083" y="15">2</tspan></text><path d="M1489.27 2025.85 1830.14 2025.85 1830.14 2028.15 1489.27 2028.15ZM1516.19 2044.03 1486.99 2027 1516.19 2009.97C1516.74 2009.65 1517.44 2009.83 1517.76 2010.38 1518.08 2010.93 1517.89 2011.63 1517.35 2011.95L1489.85 2027.99 1489.85 2026.01 1517.35 2042.05C1517.89 2042.37 1518.08 2043.07 1517.76 2043.62 1517.44 2044.17 1516.74 2044.35 1516.19 2044.03ZM1803.22 2009.97 1832.41 2027 1803.22 2044.03C1802.67 2044.35 1801.97 2044.17 1801.65 2043.62 1801.33 2043.07 1801.52 2042.37 1802.06 2042.05L1829.56 2026.01 1829.56 2027.99 1802.06 2011.95C1801.52 2011.63 1801.33 2010.93 1801.65 2010.38 1801.97 2009.83 1802.67 2009.65 1803.22 2009.97Z"/><rect x="1616" y="1985" width="82.0001" height="99.9996" fill="#FFFFFF"/><text font-family="Cambria,Cambria_MSFontService,sans-serif" font-weight="400" font-size="55" transform="matrix(1 0 0 1 1649.36 2055)">l</text><path d="M1420 1519C1420 1510.72 1426.94 1504 1435.5 1504 1444.06 1504 1451 1510.72 1451 1519 1451 1527.28 1444.06 1534 1435.5 1534 1426.94 1534 1420 1527.28 1420 1519Z" fill="#00B050" fill-rule="evenodd"/><path d="M1870 1587C1870 1578.72 1876.94 1572 1885.5 1572 1894.06 1572 1901 1578.72 1901 1587 1901 1595.28 1894.06 1602 1885.5 1602 1876.94 1602 1870 1595.28 1870 1587Z" fill="#00B050" fill-rule="evenodd"/><text fill="#00B050" font-family="Cambria,Cambria_MSFontService,sans-serif" font-weight="400" font-size="64" transform="matrix(1 0 0 1 1901.03 1578)">Ψ<tspan font-size="43" x="50.4166" y="15">2</tspan></text><path d="M1420 1699.5C1420 1690.94 1426.94 1684 1435.5 1684 1444.06 1684 1451 1690.94 1451 1699.5 1451 1708.06 1444.06 1715 1435.5 1715 1426.94 1715 1420 1708.06 1420 1699.5Z" fill="#FF0000" fill-rule="evenodd"/><path d="M1872 1710.5C1872 1701.94 1878.72 1695 1887 1695 1895.28 1695 1902 1701.94 1902 1710.5 1902 1719.06 1895.28 1726 1887 1726 1878.72 1726 1872 1719.06 1872 1710.5Z" fill="#7030A0" fill-rule="evenodd"/><text fill="#7030A0" font-family="Cambria,Cambria_MSFontService,sans-serif" font-weight="400" font-size="64" transform="matrix(1 0 0 1 1907.35 1654)">N<tspan font-size="43" x="43.5416" y="15">2</tspan><tspan font-size="64" x="67.0313" y="0">(x)</tspan><tspan fill="#FF0000" font-size="64" x="-619.774" y="-14">N</tspan><tspan fill="#FF0000" font-size="43" x="-576.232" y="1">1</tspan><tspan fill="#FF0000" font-size="64" x="-552.743" y="-14">(x)</tspan><tspan fill="#FF0000" font-size="48" x="-533.245" y="71">1</tspan><tspan font-size="48" x="13.8002" y="72">2</tspan></text></g></svg>