<svg width="1602" height="789" xmlns="http://www.w3.org/2000/svg" xmlns:xlink="http://www.w3.org/1999/xlink" overflow="hidden"><defs><clipPath id="clip0"><rect x="1216" y="400" width="1602" height="789"/></clipPath></defs><g clip-path="url(#clip0)" transform="translate(-1216 -400)"><path d="M1395 446 1395 915.24" stroke="#BFBFBF" stroke-width="2.29167" stroke-miterlimit="8" fill="none" fill-rule="evenodd"/><path d="M1845 446 1845 915.24" stroke="#BFBFBF" stroke-width="2.29167" stroke-miterlimit="8" fill="none" fill-rule="evenodd"/><path d="M2294 446 2294 915.24" stroke="#BFBFBF" stroke-width="2.29167" stroke-miterlimit="8" fill="none" fill-rule="evenodd"/><path d="M2743 446 2743 915.24" stroke="#BFBFBF" stroke-width="2.29167" stroke-miterlimit="8" fill="none" fill-rule="evenodd"/><text font-family="Cambria,Cambria_MSFontService,sans-serif" font-weight="400" font-size="64" transform="matrix(1 0 0 1 1373.38 1028)">x<tspan font-size="43" x="30.9375" y="15">1</tspan></text><path d="M0 0 1372.69 0.633727" stroke="#8FAADC" stroke-width="10.3125" stroke-miterlimit="8" fill="none" fill-rule="evenodd" transform="matrix(1 0 0 -1 1393 925.634)"/><path d="M1369.5 926C1369.5 910.812 1381.81 898.5 1397 898.5 1412.19 898.5 1424.5 910.812 1424.5 926 1424.5 941.188 1412.19 953.5 1397 953.5 1381.81 953.5 1369.5 941.188 1369.5 926Z" stroke="#000000" stroke-width="4.58333" stroke-miterlimit="8" fill-rule="evenodd"/><path d="M1818.5 926C1818.5 910.812 1830.59 898.5 1845.5 898.5 1860.41 898.5 1872.5 910.812 1872.5 926 1872.5 941.188 1860.41 953.5 1845.5 953.5 1830.59 953.5 1818.5 941.188 1818.5 926Z" stroke="#000000" stroke-width="4.58333" stroke-miterlimit="8" fill-rule="evenodd"/><path d="M2266.5 926C2266.5 910.812 2278.81 898.5 2294 898.5 2309.19 898.5 2321.5 910.812 2321.5 926 2321.5 941.188 2309.19 953.5 2294 953.5 2278.81 953.5 2266.5 941.188 2266.5 926Z" stroke="#000000" stroke-width="4.58333" stroke-miterlimit="8" fill-rule="evenodd"/><path d="M2714.5 926C2714.5 910.812 2726.81 898.5 2742 898.5 2757.19 898.5 2769.5 910.812 2769.5 926 2769.5 941.188 2757.19 953.5 2742 953.5 2726.81 953.5 2714.5 941.188 2714.5 926Z" stroke="#000000" stroke-width="4.58333" stroke-miterlimit="8" fill-rule="evenodd"/><text font-family="Cambria,Cambria_MSFontService,sans-serif" font-weight="400" font-size="64" transform="matrix(1 0 0 1 1825.52 1028)">x<tspan font-size="43" x="30.9375" y="15">2</tspan><tspan font-size="64" x="452.146" y="0">x</tspan><tspan font-size="43" x="483.083" y="15">3</tspan><tspan font-size="64" x="904.292" y="0">x</tspan><tspan font-size="43" x="935.229" y="15">4</tspan><tspan fill="#00B050" font-size="64" x="-421.964" y="-547">Ψ</tspan><tspan fill="#00B050" font-size="43" x="-371.547" y="-532">1</tspan></text><path d="M1393.5 497.5 1845.37 625.415" stroke="#00B050" stroke-width="3.4375" stroke-miterlimit="8" fill="none" fill-rule="evenodd"/><path d="M1847.5 625.5 2294.7 829.503" stroke="#00B050" stroke-width="3.4375" stroke-miterlimit="8" fill="none" fill-rule="evenodd"/><path d="M0 0 450.059 232.609" stroke="#00B050" stroke-width="3.4375" stroke-miterlimit="8" fill="none" fill-rule="evenodd" transform="matrix(1 0 0 -1 2295.5 829.109)"/><path d="M1381 500C1381 491.716 1387.94 485 1396.5 485 1405.06 485 1412 491.716 1412 500 1412 508.284 1405.06 515 1396.5 515 1387.94 515 1381 508.284 1381 500Z" fill="#00B050" fill-rule="evenodd"/><path d="M1830 625.5C1830 616.94 1836.72 610 1845 610 1853.28 610 1860 616.94 1860 625.5 1860 634.061 1853.28 641 1845 641 1836.72 641 1830 634.061 1830 625.5Z" fill="#00B050" fill-rule="evenodd"/><path d="M2279 829C2279 820.716 2285.94 814 2294.5 814 2303.06 814 2310 820.716 2310 829 2310 837.284 2303.06 844 2294.5 844 2285.94 844 2279 837.284 2279 829Z" fill="#00B050" fill-rule="evenodd"/><path d="M2729 593C2729 584.716 2735.94 578 2744.5 578 2753.06 578 2760 584.716 2760 593 2760 601.284 2753.06 608 2744.5 608 2735.94 608 2729 601.284 2729 593Z" fill="#00B050" fill-rule="evenodd"/><text fill="#00B050" font-family="Cambria,Cambria_MSFontService,sans-serif" font-weight="400" font-size="64" transform="matrix(1 0 0 1 1860.97 616)">Ψ<tspan font-size="43" x="50.4166" y="15">2</tspan><tspan font-size="64" x="437.073" y="146">Ψ</tspan><tspan font-size="43" x="487.49" y="161">3</tspan><tspan font-size="64" x="790.285" y="-53">Ψ</tspan><tspan font-size="43" x="840.702" y="-38">4</tspan><tspan fill="#000000" font-size="55" x="-255.838" y="376">1</tspan><tspan fill="#000000" font-size="55" x="191.433" y="377">2</tspan><tspan fill="#000000" font-size="55" x="654.936" y="378">3</tspan></text><path d="M1216 1140.85 1376.42 1140.85 1376.42 1143.15 1216 1143.15ZM1371.83 1128.25 1399.33 1142 1371.83 1155.75Z"/><text font-family="Cambria,Cambria_MSFontService,sans-serif" font-weight="400" font-size="64" transform="matrix(1 0 0 1 1324.43 1135)">x</text></g></svg>