<svg width="2178" height="1311" xmlns="http://www.w3.org/2000/svg" xmlns:xlink="http://www.w3.org/1999/xlink" overflow="hidden"><defs><clipPath id="clip0"><rect x="1017" y="494" width="2178" height="1311"/></clipPath></defs><g clip-path="url(#clip0)" transform="translate(-1017 -494)"><rect x="1209" y="577" width="1986" height="1069" fill="#73B1DD"/><path d="M1210.22 942.481C1528.38 827.886 1767.09 827.886 2007.42 812.496 2325.58 800 2874.03 904.079 3189.78 958.786L3195 1097C2884.06 1058.75 2493.28 1000.39 2221.26 975.091 2100.5 967.624 2016.25 947.967 1766.69 964.881 1478.62 990.482 1381.53 1058.14 1205 1097L1210.22 942.481Z" fill="#181717" fill-rule="evenodd"/><path d="M1205 1199.44C1205 1199.44 1515.81 1290.59 1837.25 1286.64 2159.1 1282.54 2170.15 1165.1 2437.2 1162.97 2704.25 1161 3195 1244.1 3195 1244.1L3195 1347.41C3195 1347.41 2873.56 1385.85 2633.5 1383.87 2393.44 1381.74 2175.46 1349.38 1815.58 1351.36 1455.69 1353.49 1210.32 1398 1210.32 1398L1205 1199.44Z" fill="#181717" fill-rule="evenodd"/><path d="M1209 674.678C1209 674.678 1560.83 750.073 2085.53 750.073 2610.64 750.073 3195 807 3195 807L3195 577 1209 577 1209 674.678Z" fill="#181717" fill-rule="evenodd"/><path d="M1205 1457C1205 1457 1818.3 1458.83 1980.88 1479.25 2175.05 1503.64 2380.04 1593.11 2640.74 1589 2901.45 1585.03 3195 1532.14 3195 1532.14L3195 1646 1215.81 1646 1205 1457Z" fill="#181717" fill-rule="evenodd"/><path d="M2236 654.25 2777.5 654.25 2777.5 629 2828 679.5 2777.5 730 2777.5 704.75 2236 704.75Z" fill="#FFC000" fill-rule="evenodd"/><text font-family="Cambria,Cambria_MSFontService,sans-serif" font-weight="400" font-size="48" transform="matrix(1 0 0 1 2294.32 698)">s<tspan font-size="48" x="20.625" y="0">tructure</tspan><tspan font-size="48" x="190.209" y="0">-</tspan><tspan font-size="48" x="206.25" y="0">borne </tspan><tspan font-size="48" x="339.167" y="0">noise</tspan></text><path d="M2097.77 840.809 2619.01 921.909 2622.89 896.922 2665.09 954.671 2607.34 996.868 2611.23 971.882 2090 890.782Z" fill="#FFC000" fill-rule="evenodd"/><text font-family="Cambria,Cambria_MSFontService,sans-serif" font-weight="400" font-size="48" transform="matrix(0.988111 0.153743 -0.153743 0.988111 2142.29 892)">structure<tspan font-size="48" x="190.171" y="-0.240225">-</tspan><tspan font-size="48" x="206.141" y="-0.700991">borne </tspan><tspan font-size="48" x="339.144" y="-0.142635">noise</tspan></text><path d="M2335 1264.25 2850.5 1264.25 2850.5 1239 2901 1289.5 2850.5 1340 2850.5 1314.75 2335 1314.75Z" fill="#FFC000" fill-rule="evenodd"/><text font-family="Cambria,Cambria_MSFontService,sans-serif" font-weight="400" font-size="48" transform="matrix(1 0 0 1 2380.58 1308)">structure<tspan font-size="48" x="190.208" y="0">-</tspan><tspan font-size="48" x="206.25" y="0">borne </tspan><tspan font-size="48" x="339.167" y="0">noise</tspan></text><path d="M1506.31 1512.77 2012.12 1552.67 2014.11 1527.46 2060.55 1581.85 2006.16 1628.29 2008.15 1603.08 1502.33 1563.19Z" fill="#FFC000" fill-rule="evenodd"/><text font-family="Cambria,Cambria_MSFontService,sans-serif" font-weight="400" font-size="48" transform="matrix(0.996904 0.0786299 -0.0786299 0.996904 1544.52 1559)">structure<tspan font-size="48" x="190.212" y="0.0438051">-</tspan><tspan font-size="48" x="206.312" y="0.780159">borne </tspan><tspan font-size="48" x="339.193" y="0.330334">noise</tspan></text><path d="M1772.48 1116.2 2169.12 1067.11 2166.01 1042.01 2222.42 1085.99 2178.44 1142.39 2175.33 1117.3 1778.69 1166.39Z" fill="#FFFFFF" fill-rule="evenodd"/><text font-family="Cambria,Cambria_MSFontService,sans-serif" font-weight="400" font-size="48" transform="matrix(0.992427 -0.122837 0.122837 0.992427 1832.04 1153)">air<tspan font-size="48" x="56.7228" y="-0.0325727">-</tspan><tspan font-size="48" x="72.768" y="-0.0618353">borne </tspan><tspan font-size="48" x="205.767" y="-0.72961">noise</tspan></text><path d="M2504.25 1489.1 2888.93 1464.59 2887.32 1439.35 2941.01 1486.61 2893.75 1540.3 2892.15 1515.06 2507.46 1539.57Z" fill="#FFFFFF" fill-rule="evenodd"/><text font-family="Cambria,Cambria_MSFontService,sans-serif" font-weight="400" font-size="48" transform="matrix(0.997977 -0.0635749 0.0635749 0.997977 2554.45 1529)">air<tspan font-size="48" x="56.6802" y="0.604665">-</tspan><tspan font-size="48" x="72.7207" y="0.624476">borne </tspan><tspan font-size="48" x="205.672" y="0.0757523">noise</tspan></text><path d="M2535.28 770.949 2921.69 833.103 2925.71 808.137 2967.61 866.101 2909.65 908.002 2913.66 883.036 2527.25 820.881Z" fill="#FFFFFF" fill-rule="evenodd"/><text font-family="Cambria,Cambria_MSFontService,sans-serif" font-weight="400" font-size="48" transform="matrix(0.987309 0.15881 -0.15881 0.987309 2578.24 822)">air<tspan font-size="48" x="56.7174" y="-0.00738525">-</tspan><tspan font-size="48" x="72.6722" y="-0.548021">borne </tspan><tspan font-size="48" x="205.572" y="-0.655128">noise</tspan></text><path d="M1255.57 665.066 1303.18 634.786 1327.24 685.824 1301.5 678.369 1296.3 696.325 1322.04 703.78 1274.43 734.06 1250.37 683.022 1276.11 690.477 1281.31 672.521Z" fill="#FF0000" fill-rule="evenodd"/><path d="M1287.39 1072.58 1305.38 1019.1 1356.18 1043.67 1331.47 1054.05 1338.72 1071.28 1363.42 1060.9 1345.43 1114.38 1294.64 1089.82 1319.34 1079.43 1312.1 1062.2Z" fill="#FF0000" fill-rule="evenodd"/><path d="M1694 723.979 1731 682 1768 723.979 1741.42 723.979 1741.42 744.021 1768 744.021 1731 786 1694 744.021 1720.58 744.021 1720.58 723.979Z" fill="#FF0000" fill-rule="evenodd"/><path d="M1831.8 815.755 1863.84 769.31 1905.89 806.931 1879.28 810.1 1881.49 828.663 1908.1 825.494 1876.06 871.939 1834.01 834.318 1860.62 831.149 1858.41 812.586Z" fill="#FF0000" fill-rule="evenodd"/><path d="M2978.36 777.633 3021.49 741.256 3052.16 788.617 3025.66 784.672 3022.9 803.163 3049.41 807.108 3006.28 843.484 2975.61 796.123 3002.11 800.068 3004.87 781.578Z" fill="#FF0000" fill-rule="evenodd"/><path d="M3078.55 916.016 3126.72 886.637 3149.82 938.118 3124.22 930.18 3118.68 948.035 3144.28 955.973 3096.11 985.353 3073.01 933.871 3098.61 941.809 3104.15 923.954Z" fill="#FF0000" fill-rule="evenodd"/><path d="M1528.01 996.25 1554.12 946.226 1600.46 978.405 1574.44 984.814 1578.91 1002.97 1604.94 996.557 1578.83 1046.58 1532.48 1014.4 1558.5 1007.99 1554.03 989.841Z" fill="#FF0000" fill-rule="evenodd"/><path d="M2852.6 1037.75 2895.73 1001.36 2926.41 1048.71 2899.9 1044.77 2897.15 1063.26 2923.66 1067.2 2880.54 1103.59 2849.85 1056.24 2876.36 1060.18 2879.11 1041.68Z" fill="#FF0000" fill-rule="evenodd"/><path d="M1538.99 1248.2 1588.63 1221.38 1609 1274 1583.86 1264.73 1577.39 1282.27 1602.54 1291.54 1552.9 1318.36 1532.52 1265.74 1557.67 1275 1564.13 1257.46Z" fill="#FF0000" fill-rule="evenodd"/><path d="M2418 1153.55 2455.5 1111 2493 1153.55 2466.06 1153.55 2466.06 1171.45 2493 1171.45 2455.5 1214 2418 1171.45 2444.94 1171.45 2444.94 1153.55Z" fill="#FF0000" fill-rule="evenodd"/><path d="M3077.88 1201.4 3125.02 1170.39 3149.87 1221.05 3124.01 1213.99 3119.09 1232.02 3144.94 1239.08 3097.81 1270.09 3072.96 1219.43 3098.81 1226.49 3103.74 1208.45Z" fill="#FF0000" fill-rule="evenodd"/><path d="M1782 1333.55 1819.5 1291 1857 1333.55 1830.06 1333.55 1830.06 1352.45 1857 1352.45 1819.5 1395 1782 1352.45 1808.94 1352.45 1808.94 1333.55Z" fill="#FF0000" fill-rule="evenodd"/><path d="M2197 1353.55 2234.5 1311 2272 1353.55 2245.06 1353.55 2245.06 1372.45 2272 1372.45 2234.5 1415 2197 1372.45 2223.94 1372.45 2223.94 1353.55Z" fill="#FF0000" fill-rule="evenodd"/><path d="M2218.18 1513.53 2267.69 1486.45 2288.33 1538.96 2263.14 1529.83 2256.76 1547.4 2281.96 1556.54 2232.45 1583.62 2211.81 1531.1 2237 1540.24 2243.38 1522.66Z" fill="#FF0000" fill-rule="evenodd"/><path d="M1384 1445.55 1421.5 1403 1459 1445.55 1432.06 1445.55 1432.06 1464.45 1459 1464.45 1421.5 1507 1384 1464.45 1410.94 1464.45 1410.94 1445.55Z" fill="#FF0000" fill-rule="evenodd"/><path d="M3101.86 1550.24 3128.67 1500.6 3174.56 1533.44 3148.45 1539.47 3152.66 1557.68 3178.77 1551.65 3151.95 1601.29 3106.07 1568.45 3132.18 1562.42 3127.97 1544.2Z" fill="#FF0000" fill-rule="evenodd"/><path d="M1100.5 1646 1100.5 1646 1051 1646 1051 581 1100.5 581 1100.5 581 1150 1113.5Z" fill="#E7E6E6" fill-rule="evenodd"/><text font-family="Cambria,Cambria_MSFontService,sans-serif" font-weight="400" font-size="64" transform="matrix(-1.83697e-16 -1 1 -1.83697e-16 1099.01 1248)">excitation</text><rect x="2096.5" y="1718.5" width="359" height="60.0001" stroke="#000000" stroke-width="3.4375" stroke-linejoin="round" stroke-miterlimit="10" fill="none"/><text font-family="Cambria,Cambria_MSFontService,sans-serif" font-weight="400" font-size="48" transform="matrix(1 0 0 1 2214.77 1765)">frame</text><rect x="2658.5" y="1714.5" width="238" height="59.9998" stroke="#73B1DD" stroke-width="3.4375" stroke-linejoin="round" stroke-miterlimit="10" fill="none"/><text font-family="Cambria,Cambria_MSFontService,sans-serif" font-weight="400" font-size="48" transform="matrix(1 0 0 1 2730.2 1761)">fluid</text><rect x="1359.5" y="509.5" width="271" height="60.0002" stroke="#FF0000" stroke-width="3.4375" stroke-linejoin="round" stroke-miterlimit="10" fill="none"/><text font-family="Cambria,Cambria_MSFontService,sans-serif" font-weight="400" font-size="48" transform="matrix(1 0 0 1 1381.66 556)">interaction</text><path d="M0.505208-1.02844 171.665 83.0513 170.655 85.1082-0.505208 1.02844ZM154.504 56.9223 173.2 85.082 139.485 87.4955C138.854 87.5407 138.306 87.0656 138.261 86.4344 138.215 85.8032 138.691 85.2549 139.322 85.2097L171.077 82.9364 170.205 84.7131 152.595 58.1899C152.245 57.6627 152.388 56.9516 152.916 56.6015 153.443 56.2515 154.154 56.3951 154.504 56.9223Z" fill="#FF0000" transform="matrix(-1 0 0 1 1495.2 569)"/><path d="M1.14583-5.77214e-06 1.14618 69.3724-1.14548 69.3724-1.14583 5.77214e-06ZM17.0316 42.4496 0.000360919 71.6464-17.0312 42.4498C-17.3501 41.9032-17.1654 41.2016-16.6188 40.8827-16.0722 40.5638-15.3706 40.7485-15.0517 41.2951L0.990093 68.795-0.9894 68.795 15.0521 41.2949C15.371 40.7483 16.0726 40.5637 16.6192 40.8825 17.1658 41.2014 17.3505 41.903 17.0316 42.4496Z" transform="matrix(1 0 0 -1 2276 1717.64)"/><path d="M1.12252-0.229965 28.9104 135.41 26.6653 135.87-1.12252 0.229965ZM39.0693 105.846 28.2441 137.867 5.69958 112.683C5.2775 112.211 5.31757 111.487 5.78907 111.065 6.26058 110.643 6.98497 110.683 7.40705 111.154L28.6415 134.875 26.7023 135.272 36.8984 105.112C37.1011 104.513 37.7513 104.191 38.3508 104.394 38.9503 104.597 39.272 105.247 39.0693 105.846Z" fill="#73B1DD" transform="matrix(1 0 0 -1 2777 1713.86)"/><path d="M2137 731.547 2174.5 689 2212 731.547 2185.06 731.547 2185.06 750.453 2212 750.453 2174.5 793 2137 750.453 2163.94 750.453 2163.94 731.547Z" fill="#FF0000" fill-rule="evenodd"/><path d="M1769.7 948.606 1804.84 904.463 1844.22 944.874 1817.45 946.214 1818.39 964.885 1845.16 963.545 1810.01 1007.69 1770.63 967.277 1797.4 965.936 1796.46 947.266Z" fill="#FF0000" fill-rule="evenodd"/></g></svg>