<svg width="1995" height="872" xmlns="http://www.w3.org/2000/svg" xmlns:xlink="http://www.w3.org/1999/xlink" overflow="hidden"><defs><clipPath id="clip0"><rect x="1157" y="718" width="1995" height="872"/></clipPath></defs><g clip-path="url(#clip0)" transform="translate(-1157 -718)"><rect x="1157" y="718" width="1995" height="753" fill="#F2F2F2"/><rect x="1212" y="768" width="888" height="653" fill="#181717"/><path d="M1258 870.5C1258 829.355 1291.35 796 1332.5 796 1373.65 796 1407 829.355 1407 870.5 1407 911.645 1373.65 945 1332.5 945 1291.35 945 1258 911.645 1258 870.5Z" fill="#73B1DD" fill-rule="evenodd"/><path d="M1379 963C1379 922.131 1412.13 889 1453 889 1493.87 889 1527 922.131 1527 963 1527 1003.87 1493.87 1037 1453 1037 1412.13 1037 1379 1003.87 1379 963Z" fill="#73B1DD" fill-rule="evenodd"/><path d="M1453 888.5C1453 847.355 1486.13 814 1527 814 1567.87 814 1601 847.355 1601 888.5 1601 929.645 1567.87 963 1527 963 1486.13 963 1453 929.645 1453 888.5Z" fill="#73B1DD" fill-rule="evenodd"/><path d="M1258 1111.5C1258 1070.35 1291.35 1037 1332.5 1037 1373.65 1037 1407 1070.35 1407 1111.5 1407 1152.65 1373.65 1186 1332.5 1186 1291.35 1186 1258 1152.65 1258 1111.5Z" fill="#73B1DD" fill-rule="evenodd"/><path d="M1307 1292C1307 1251.13 1340.35 1218 1381.5 1218 1422.65 1218 1456 1251.13 1456 1292 1456 1332.87 1422.65 1366 1381.5 1366 1340.35 1366 1307 1332.87 1307 1292Z" fill="#73B1DD" fill-rule="evenodd"/><path d="M1450 1111.5C1450 1070.35 1483.13 1037 1524 1037 1564.87 1037 1598 1070.35 1598 1111.5 1598 1152.65 1564.87 1186 1524 1186 1483.13 1186 1450 1152.65 1450 1111.5Z" fill="#73B1DD" fill-rule="evenodd"/><path d="M1644 888.5C1644 847.355 1677.35 814 1718.5 814 1759.65 814 1793 847.355 1793 888.5 1793 929.645 1759.65 963 1718.5 963 1677.35 963 1644 929.645 1644 888.5Z" fill="#73B1DD" fill-rule="evenodd"/><path d="M1549 1019C1549 978.131 1582.13 945 1623 945 1663.87 945 1697 978.131 1697 1019 1697 1059.87 1663.87 1093 1623 1093 1582.13 1093 1549 1059.87 1549 1019Z" fill="#73B1DD" fill-rule="evenodd"/><path d="M1914 870.5C1914 829.355 1947.35 796 1988.5 796 2029.65 796 2063 829.355 2063 870.5 2063 911.645 2029.65 945 1988.5 945 1947.35 945 1914 911.645 1914 870.5Z" fill="#73B1DD" fill-rule="evenodd"/><path d="M1792 1019C1792 978.131 1825.35 945 1866.5 945 1907.65 945 1941 978.131 1941 1019 1941 1059.87 1907.65 1093 1866.5 1093 1825.35 1093 1792 1059.87 1792 1019Z" fill="#73B1DD" fill-rule="evenodd"/><path d="M1652 1149C1652 1108.13 1685.13 1075 1726 1075 1766.87 1075 1800 1108.13 1800 1149 1800 1189.87 1766.87 1223 1726 1223 1685.13 1223 1652 1189.87 1652 1149Z" fill="#73B1DD" fill-rule="evenodd"/><path d="M1904 1180C1904 1139.13 1937.13 1106 1978 1106 2018.87 1106 2052 1139.13 2052 1180 2052 1220.87 2018.87 1254 1978 1254 1937.13 1254 1904 1220.87 1904 1180Z" fill="#73B1DD" fill-rule="evenodd"/><path d="M1526 1297.5C1526 1256.35 1559.13 1223 1600 1223 1640.87 1223 1674 1256.35 1674 1297.5 1674 1338.65 1640.87 1372 1600 1372 1559.13 1372 1526 1338.65 1526 1297.5Z" fill="#73B1DD" fill-rule="evenodd"/><path d="M1738 1297.5C1738 1256.35 1771.35 1223 1812.5 1223 1853.65 1223 1887 1256.35 1887 1297.5 1887 1338.65 1853.65 1372 1812.5 1372 1771.35 1372 1738 1338.65 1738 1297.5Z" fill="#73B1DD" fill-rule="evenodd"/><path d="M1939 1335.5C1939 1294.35 1972.35 1261 2013.5 1261 2054.65 1261 2088 1294.35 2088 1335.5 2088 1376.65 2054.65 1410 2013.5 1410 1972.35 1410 1939 1376.65 1939 1335.5Z" fill="#73B1DD" fill-rule="evenodd"/><rect x="2209" y="772" width="888" height="654" fill="#181717"/><path d="M2248 772 2553.87 1425.4" stroke="#73B1DD" stroke-width="27.5" stroke-miterlimit="8" fill="none" fill-rule="evenodd"/><path d="M0 0 67.1354 667.425" stroke="#73B1DD" stroke-width="27.5" stroke-miterlimit="8" fill="none" fill-rule="evenodd" transform="matrix(-1 0 0 1 2326.14 772)"/><path d="M0 0 22.6875 673.2" stroke="#73B1DD" stroke-width="27.5" stroke-miterlimit="8" fill="none" fill-rule="evenodd" transform="matrix(-1 0 0 1 2431.69 758)"/><path d="M2431 912 3096.36 1042.35" stroke="#73B1DD" stroke-width="27.5" stroke-miterlimit="8" fill="none" fill-rule="evenodd"/><path d="M2554 772 2988.16 1425.4" stroke="#73B1DD" stroke-width="27.5" stroke-miterlimit="8" fill="none" fill-rule="evenodd"/><path d="M0 0 530.854 447.562" stroke="#73B1DD" stroke-width="27.5" stroke-miterlimit="8" fill="none" fill-rule="evenodd" transform="matrix(-1 0 0 1 2730.85 772)"/><path d="M0 0 486.131 650.513" stroke="#73B1DD" stroke-width="27.5" stroke-miterlimit="8" fill="none" fill-rule="evenodd" transform="matrix(-1 0 0 1 2966.13 775)"/><path d="M2738.36 1426.05 2489 969" stroke="#73B1DD" stroke-width="27.5" stroke-miterlimit="8" fill="none" fill-rule="evenodd"/><path d="M0 0 18.8718 656.081" stroke="#73B1DD" stroke-width="27.5" stroke-miterlimit="8" fill="none" fill-rule="evenodd" transform="matrix(-1 0 0 1 2872.87 770)"/><path d="M0 0 21.6308 394.041" stroke="#73B1DD" stroke-width="27.5" stroke-miterlimit="8" fill="none" fill-rule="evenodd" transform="matrix(-1 0 0 1 3009.63 1032)"/><path d="M0 0 405.797 434.053" stroke="#73B1DD" stroke-width="27.5" stroke-miterlimit="8" fill="none" fill-rule="evenodd" transform="matrix(-1 0 0 1 3096.8 894)"/><rect x="2201" y="724" width="896" height="46.0001" fill="#F2F2F2"/><rect x="2203" y="1425" width="896" height="19.0002" fill="#F2F2F2"/><rect x="2174" y="758" width="35" height="682" fill="#F2F2F2"/><rect x="3096" y="744" width="35.9998" height="682" fill="#F2F2F2"/><text font-family="Cambria,Cambria_MSFontService,sans-serif" font-weight="400" font-size="64" transform="matrix(1 0 0 1 1350.65 1534)">impervious<tspan font-size="64" x="325.417" y="0">("</tspan>closed<tspan font-size="64" x="548.854" y="0">")</tspan><tspan font-size="64" x="1052.96" y="2">pervious</tspan><tspan font-size="64" x="1307.33" y="2">("open")</tspan></text><path d="M1.13967-0.118671 75.1549 710.698 72.8755 710.935-1.13967 0.118671ZM88.167 682.277 74.2509 713.08 54.2873 685.804C53.9136 685.294 54.0245 684.577 54.5352 684.203 55.0458 683.829 55.7628 683.94 56.1366 684.451L74.94 710.142 72.9712 710.347 86.0785 681.333C86.3391 680.756 87.0178 680.5 87.5945 680.761 88.1712 681.021 88.4275 681.7 88.167 682.277Z" fill="#FF0000" transform="matrix(-1 0 0 1 2329.25 750)"/><path d="M2249.04 757.52 2573.1 1460.51 2571.02 1461.47 2246.96 758.48ZM2576.26 1429.41 2573.02 1463.06 2545.33 1443.67C2544.81 1443.31 2544.68 1442.6 2545.05 1442.08 2545.41 1441.56 2546.12 1441.43 2546.64 1441.8L2572.72 1460.06 2570.93 1460.88 2573.98 1429.19C2574.04 1428.56 2574.6 1428.1 2575.23 1428.16 2575.86 1428.22 2576.32 1428.78 2576.26 1429.41Z" fill="#FF0000"/><path d="M1.1451-0.0410692 26.6384 710.765 24.3482 710.847-1.1451 0.0410692ZM41.5488 683.292 25.5748 713.08 7.50786 684.513C7.16961 683.978 7.32898 683.27 7.86382 682.932 8.39866 682.594 9.10644 682.753 9.4447 683.288L26.4617 710.195 24.4835 710.266 39.5292 682.209C39.8283 681.651 40.5228 681.442 41.0805 681.741 41.6382 682.04 41.8479 682.734 41.5488 683.292Z" fill="#FF0000" transform="matrix(-1 0 0 1 2431.57 750)"/><path d="M2544.96 749.373 3010.2 1460.55 3008.28 1461.81 2543.04 750.627ZM3008.75 1429.32 3010.48 1463.08 2980.24 1447.97C2979.68 1447.69 2979.45 1447 2979.73 1446.43 2980.01 1445.87 2980.7 1445.64 2981.27 1445.92L3009.75 1460.15 3008.09 1461.24 3006.46 1429.44C3006.43 1428.81 3006.91 1428.27 3007.55 1428.24 3008.18 1428.2 3008.72 1428.69 3008.75 1429.32Z" fill="#FF0000"/><path d="M1.14542-0.0306127 19.9566 703.819 17.6657 703.88-1.14542 0.0306127ZM35.1172 676.483 18.8719 706.124 1.06658 677.393C0.733229 676.855 0.899054 676.149 1.43696 675.816 1.97487 675.482 2.68117 675.648 3.01452 676.186L19.7851 703.248 17.8064 703.3 33.1076 675.382C33.4118 674.827 34.1082 674.623 34.6631 674.928 35.2181 675.232 35.4214 675.928 35.1172 676.483Z" fill="#FF0000" transform="matrix(-1 0 0 1 2872.87 757)"/><path d="M0.917308-0.686644 534.108 711.618 532.273 712.991-0.917308 0.686644ZM530.706 680.564 534.567 714.144 503.437 700.977C502.854 700.73 502.581 700.058 502.828 699.475 503.074 698.892 503.747 698.619 504.329 698.866L533.651 711.268 532.066 712.455 528.429 680.826C528.357 680.197 528.808 679.629 529.437 679.557 530.065 679.485 530.634 679.936 530.706 680.564Z" fill="#FF0000" transform="matrix(-1 0 0 1 2988.56 749)"/></g></svg>