<svg width="1290" height="715" xmlns="http://www.w3.org/2000/svg" xmlns:xlink="http://www.w3.org/1999/xlink" overflow="hidden"><defs><clipPath id="clip0"><rect x="1268" y="823" width="1290" height="715"/></clipPath></defs><g clip-path="url(#clip0)" transform="translate(-1268 -823)"><path d="M1590.5 1318C1590.5 1274.09 1626.09 1238.5 1670 1238.5 1713.91 1238.5 1749.5 1274.09 1749.5 1318 1749.5 1361.91 1713.91 1397.5 1670 1397.5 1626.09 1397.5 1590.5 1361.91 1590.5 1318Z" stroke="#000000" stroke-width="4.58333" stroke-miterlimit="8" fill="#00B050" fill-rule="evenodd"/><text fill="#FFFFFF" font-family="Calibri,Calibri_MSFontService,sans-serif" font-weight="400" font-size="183" transform="matrix(1 0 0 1 1624.18 1379)">+</text><path d="M2253.5 1318C2253.5 1274.09 2289.09 1238.5 2333 1238.5 2376.91 1238.5 2412.5 1274.09 2412.5 1318 2412.5 1361.91 2376.91 1397.5 2333 1397.5 2289.09 1397.5 2253.5 1361.91 2253.5 1318Z" stroke="#000000" stroke-width="4.58333" stroke-miterlimit="8" fill="#FF0000" fill-rule="evenodd"/><text fill="#FFFFFF" font-family="Calibri,Calibri_MSFontService,sans-serif" font-weight="400" font-size="128" transform="matrix(1 0 0 1 2312.65 1360)">-</text><path d="M1306 1451.85 1466.42 1451.85 1466.42 1454.15 1306 1454.15ZM1461.83 1439.25 1489.33 1453 1461.83 1466.75Z"/><path d="M1.14583-2.10638e-06 1.14615 173.403-1.14551 173.403-1.14583 2.10638e-06ZM13.7503 168.819 0.000360892 196.319-13.7497 168.819Z" transform="matrix(1 0 0 -1 1343 1491.32)"/><text font-family="Calibri,Calibri_MSFontService,sans-serif" font-weight="400" font-size="64" transform="matrix(1 0 0 1 1414.59 1444)">x<tspan font-size="64" x="-107.708" y="-72">y</tspan></text><path d="M25.7813-5.15623 477.762-5.15591 477.762 5.15659 25.7813 5.15627ZM30.9375 15.4688 0 0 30.9375-15.4687ZM472.606-15.4684 503.543 0.000360892 472.606 15.4691Z" transform="matrix(1 0 0 -1 1749 1317)"/><text font-family="Calibri,Calibri_MSFontService,sans-serif" font-weight="400" font-size="83" transform="matrix(1 0 0 1 1958.49 1392)">dx</text><path d="M2.52137-4.49773 493.367 270.664 488.324 279.659-2.52137 4.49773ZM493.911 259.147 513.333 287.768 478.783 286.133Z" transform="matrix(1 0 0 -1 1714 1216.77)"/><path d="M2326.9 1217.96 2283.72 989.29 2293.85 987.376 2337.03 1216.05ZM2274.54 996.271 2284 963 2304.94 990.53Z"/><path d="M2227.5 897C2227.5 874.08 2246.08 855.5 2269 855.5 2291.92 855.5 2310.5 874.08 2310.5 897 2310.5 919.92 2291.92 938.5 2269 938.5 2246.08 938.5 2227.5 919.92 2227.5 897Z" stroke="#000000" stroke-width="4.58333" stroke-miterlimit="8" fill-rule="evenodd"/><path d="M1902.75 1126.33 1906.13 1132.2 1910.47 1140.63 1914.49 1149.61 1918.32 1158.97 1921.84 1168.89 1925.04 1179.11 1928.05 1189.77 1930.74 1200.82 1935.19 1223.81 1938.45 1247.94 1940.46 1272.94 1941.08 1296.2 1938.79 1296.26 1938.17 1273.03 1938.17 1273.09 1936.17 1248.15 1936.18 1248.22 1932.93 1224.15 1932.94 1224.22 1928.5 1201.28 1928.51 1201.33 1925.82 1190.33 1925.83 1190.37 1922.83 1179.75 1922.84 1179.78 1919.66 1169.59 1919.67 1169.63 1916.17 1159.76 1916.19 1159.81 1912.38 1150.5 1912.39 1150.53 1908.39 1141.59 1908.42 1141.65 1904.11 1133.27 1904.13 1133.32 1900.76 1127.48ZM1900.44 1158.73 1900.62 1124.93 1929.95 1141.73C1930.5 1142.05 1930.69 1142.75 1930.38 1143.3 1930.06 1143.84 1929.36 1144.04 1928.81 1143.72L1901.19 1127.9 1902.9 1126.91 1902.73 1158.75C1902.72 1159.38 1902.21 1159.89 1901.58 1159.89 1900.94 1159.88 1900.43 1159.37 1900.44 1158.73ZM1956.24 1268.86 1940 1298.51 1922.19 1269.78C1921.85 1269.24 1922.02 1268.53 1922.56 1268.2 1923.1 1267.87 1923.8 1268.03 1924.14 1268.57L1940.91 1295.63 1938.93 1295.68 1954.23 1267.76C1954.53 1267.2 1955.23 1267 1955.78 1267.3 1956.34 1267.61 1956.54 1268.31 1956.24 1268.86Z" fill="#C55A11"/><path d="M1890.21 1197.5C1888.02 1197.5 1886.15 1198.73 1884.6 1201.19 1883.05 1203.65 1881.67 1207.53 1880.49 1212.82L1876.35 1231.18C1880.19 1231.05 1883.5 1229.78 1886.28 1227.39 1889.06 1225 1891.21 1221.77 1892.72 1217.69 1894.24 1213.61 1894.99 1209.39 1894.99 1205.04 1894.99 1202.69 1894.58 1200.85 1893.76 1199.51 1892.93 1198.17 1891.75 1197.5 1890.21 1197.5ZM1871.49 1194.18 1873.6 1196.98C1869.62 1199.81 1866.46 1203.18 1864.11 1207.07 1861.76 1210.96 1860.59 1214.8 1860.59 1218.58 1860.59 1222.09 1861.37 1224.86 1862.94 1226.89 1864.5 1228.91 1866.87 1230.25 1870.03 1230.9L1874.16 1212.3C1875.54 1206.14 1877.72 1201.59 1880.71 1198.66 1883.69 1195.73 1887.06 1194.26 1890.82 1194.26 1894.52 1194.26 1897.3 1195.3 1899.17 1197.36 1901.03 1199.43 1901.97 1202.53 1901.97 1206.66 1901.97 1211.82 1900.89 1216.51 1898.74 1220.73 1896.6 1224.94 1893.54 1228.24 1889.56 1230.61 1885.59 1232.99 1880.97 1234.22 1875.7 1234.3L1871.89 1251.2 1865.53 1251.2 1869.34 1234.22C1864.32 1233.65 1860.44 1231.99 1857.73 1229.22 1855.01 1226.45 1853.66 1222.81 1853.66 1218.29 1853.66 1209.32 1859.6 1201.29 1871.49 1194.18Z" fill="#C55A11" fill-rule="evenodd"/><text fill="#000000" fill-opacity="0" font-family="Arial,Arial_MSFontService,sans-serif" font-size="57.022" x="1853.66" y="1244.07">𝜑</text><text font-family="Calibri,Calibri_MSFontService,sans-serif" font-weight="400" font-size="83" transform="matrix(1 0 0 1 1939.18 990)">r<tspan font-size="55" x="28.6458" y="20">+</tspan><tspan font-size="83" x="391.219" y="110">r</tspan><tspan font-size="55" x="419.865" y="130">-</tspan><tspan font-size="64" x="-406.81" y="467">(x</tspan><tspan font-size="43" x="-359.258" y="482">0</tspan><tspan font-size="64" x="-337.487" y="467">, y</tspan><tspan font-size="43" x="-277.904" y="482">0</tspan><tspan font-size="64" x="-256.133" y="467">, z</tspan><tspan font-size="43" x="-200.56" y="482">0</tspan><tspan font-size="64" x="-178.789" y="467">)</tspan><tspan font-size="64" x="402.26" y="-87">(x, y, z)</tspan></text></g></svg>