<svg width="1388" height="1293" xmlns="http://www.w3.org/2000/svg" xmlns:xlink="http://www.w3.org/1999/xlink" overflow="hidden"><defs><clipPath id="clip0"><rect x="1305" y="245" width="1388" height="1293"/></clipPath></defs><g clip-path="url(#clip0)" transform="translate(-1305 -245)"><path d="M1590.5 1318C1590.5 1274.09 1626.09 1238.5 1670 1238.5 1713.91 1238.5 1749.5 1274.09 1749.5 1318 1749.5 1361.91 1713.91 1397.5 1670 1397.5 1626.09 1397.5 1590.5 1361.91 1590.5 1318Z" stroke="#000000" stroke-width="4.58333" stroke-miterlimit="8" fill="#00B050" fill-rule="evenodd"/><text fill="#FFFFFF" font-family="Calibri,Calibri_MSFontService,sans-serif" font-weight="400" font-size="183" transform="matrix(1 0 0 1 1624.18 1379)">+</text><path d="M2253.5 1318C2253.5 1274.09 2289.09 1238.5 2333 1238.5 2376.91 1238.5 2412.5 1274.09 2412.5 1318 2412.5 1361.91 2376.91 1397.5 2333 1397.5 2289.09 1397.5 2253.5 1361.91 2253.5 1318Z" stroke="#000000" stroke-width="4.58333" stroke-miterlimit="8" fill="#FF0000" fill-rule="evenodd"/><text fill="#FFFFFF" font-family="Calibri,Calibri_MSFontService,sans-serif" font-weight="400" font-size="128" transform="matrix(1 0 0 1 2312.65 1360)">-</text><path d="M1343 1472.85 1503.42 1472.85 1503.42 1475.15 1343 1475.15ZM1498.83 1460.25 1526.33 1474 1498.83 1487.75Z"/><path d="M1.14583-2.10638e-06 1.14615 173.403-1.14551 173.403-1.14583 2.10638e-06ZM13.7503 168.819 0.000360892 196.319-13.7497 168.819Z" transform="matrix(1 0 0 -1 1380 1513.32)"/><text font-family="Calibri,Calibri_MSFontService,sans-serif" font-weight="400" font-size="64" transform="matrix(1 0 0 1 1451.91 1472)">x<tspan font-size="64" x="-107.708" y="-78">y</tspan></text><path d="M25.7813-5.15623 477.762-5.15591 477.762 5.15659 25.7813 5.15627ZM30.9375 15.4688 0 0 30.9375-15.4687ZM472.606-15.4684 503.543 0.000360892 472.606 15.4691Z" transform="matrix(1 0 0 -1 1749 1317)"/><text font-family="Calibri,Calibri_MSFontService,sans-serif" font-weight="400" font-size="83" transform="matrix(1 0 0 1 1984.93 1301)">dx</text><path d="M3.53979-3.74924 805.207 753.132 798.127 760.63-3.53979 3.74924ZM808.541 742.097 820.417 774.583 787.302 764.592Z" transform="matrix(1 0 0 -1 1714 1216.58)"/><path d="M4.95535-1.42529 220.619 748.383 210.709 751.233-4.95535 1.42529ZM229.104 740.575 222.79 774.583 199.372 749.127Z" transform="matrix(1 0 0 -1 2332 1216.58)"/><path d="M2514.5 406C2514.5 383.08 2533.08 364.5 2556 364.5 2578.92 364.5 2597.5 383.08 2597.5 406 2597.5 428.92 2578.92 447.5 2556 447.5 2533.08 447.5 2514.5 428.92 2514.5 406Z" stroke="#000000" stroke-width="4.58333" stroke-miterlimit="8" fill-rule="evenodd"/><path d="M1965.83 996.969 1976.58 1000.67 1989.19 1005.63 2001.61 1011.02 2013.65 1016.92 2025.44 1023.25 2036.91 1029.96 2048.02 1037.17 2058.86 1044.76 2069.34 1052.73 2079.5 1061.07 2098.68 1078.93 2107.72 1088.35 2116.43 1098.13 2124.71 1108.23 2132.61 1118.64 2140.08 1129.3 2147.1 1140.34 2153.75 1151.56 2159.96 1163.1 2165.73 1174.83 2170.99 1186.87 2175.89 1199.04 2180.21 1211.52 2184.1 1224.12 2187.49 1236.91 2190.44 1249.9 2192.82 1263.07 2194.7 1276.36 2196.02 1289.78 2196.83 1303.33 2197.09 1314.71 2194.8 1314.76 2194.54 1303.4 2194.54 1303.44 2193.73 1289.94 2193.73 1289.99 2192.42 1276.61 2192.43 1276.66 2190.55 1263.41 2190.56 1263.45 2188.18 1250.33 2188.2 1250.38 2185.26 1237.44 2185.27 1237.48 2181.89 1224.73 2181.91 1224.78 2178.03 1212.21 2178.04 1212.25 2173.73 1199.81 2173.75 1199.86 2168.87 1187.74 2168.89 1187.77 2163.64 1175.77 2163.66 1175.82 2157.91 1164.13 2157.93 1164.17 2151.74 1152.67 2151.76 1152.71 2145.14 1141.52 2145.16 1141.55 2138.16 1130.55 2138.19 1130.59 2130.75 1119.97 2130.77 1120.01 2122.9 1109.63 2122.93 1109.66 2114.68 1099.6 2114.71 1099.64 2106.02 1089.89 2106.05 1089.92 2097.05 1080.54 2097.09 1080.59 2077.97 1062.78 2078.02 1062.82 2067.9 1054.51 2067.93 1054.54 2057.49 1046.6 2057.53 1046.63 2046.72 1039.06 2046.75 1039.09 2035.69 1031.9 2035.73 1031.93 2024.3 1025.24 2024.33 1025.26 2012.58 1018.95 2012.62 1018.97 2000.62 1013.09 2000.67 1013.11 1988.29 1007.74 1988.33 1007.75 1975.77 1002.82 1975.81 1002.83 1965.08 999.135ZM1985.36 1022.93 1963.31 997.311 1996.46 990.723C1997.08 990.599 1997.68 991.003 1997.81 991.623 1997.93 992.244 1997.53 992.847 1996.91 992.97L1965.68 999.176 1966.33 997.304 1987.1 1021.43C1987.51 1021.91 1987.46 1022.63 1986.98 1023.05 1986.5 1023.46 1985.77 1023.41 1985.36 1022.93ZM2212.36 1287.43 2196 1317.01 2178.3 1288.21C2177.97 1287.67 2178.14 1286.96 2178.68 1286.63 2179.22 1286.3 2179.92 1286.47 2180.26 1287.01L2196.92 1314.13 2194.95 1314.18 2210.35 1286.32C2210.66 1285.76 2211.36 1285.56 2211.91 1285.87 2212.46 1286.17 2212.66 1286.87 2212.36 1287.43Z" fill="#C55A11"/><path d="M2046.87 1081.82C2044.68 1081.82 2042.81 1083.04 2041.25 1085.5 2039.7 1087.96 2038.33 1091.84 2037.14 1097.13L2033.01 1115.49C2036.84 1115.36 2040.15 1114.1 2042.94 1111.7 2045.72 1109.31 2047.87 1106.08 2049.38 1102 2050.89 1097.92 2051.65 1093.7 2051.65 1089.35 2051.65 1087 2051.24 1085.16 2050.41 1083.82 2049.59 1082.48 2048.41 1081.82 2046.87 1081.82ZM2028.14 1078.49 2030.25 1081.29C2026.28 1084.13 2023.12 1087.49 2020.77 1091.38 2018.42 1095.27 2017.24 1099.11 2017.24 1102.89 2017.24 1106.4 2018.03 1109.17 2019.59 1111.2 2021.16 1113.22 2023.52 1114.56 2026.69 1115.21L2030.82 1096.61C2032.2 1090.45 2034.38 1085.9 2037.36 1082.97 2040.35 1080.04 2043.72 1078.57 2047.48 1078.57 2051.18 1078.57 2053.96 1079.61 2055.82 1081.67 2057.69 1083.74 2058.62 1086.84 2058.62 1090.97 2058.62 1096.13 2057.55 1100.82 2055.4 1105.04 2053.25 1109.25 2050.19 1112.55 2046.22 1114.93 2042.25 1117.3 2037.63 1118.53 2032.36 1118.61L2028.55 1135.51 2022.19 1135.51 2026 1118.53C2020.97 1117.97 2017.1 1116.3 2014.39 1113.53 2011.67 1110.76 2010.31 1107.12 2010.31 1102.61 2010.31 1093.64 2016.26 1085.6 2028.14 1078.49Z" fill="#C55A11" fill-rule="evenodd"/><text fill="#000000" fill-opacity="0" font-family="Arial,Arial_MSFontService,sans-serif" font-size="57.022" x="2010.31" y="1128.39">𝜑</text><text font-family="Calibri,Calibri_MSFontService,sans-serif" font-weight="400" font-size="83" transform="matrix(1 0 0 1 2034.07 816)">r<tspan font-size="55" x="28.6458" y="20">1</tspan><tspan font-size="83" x="419.906" y="107">r</tspan><tspan font-size="55" x="448.551" y="127">2</tspan><tspan font-size="64" x="-501.708" y="641">(x</tspan><tspan font-size="43" x="-454.156" y="656">0</tspan><tspan font-size="64" x="-432.385" y="641">,</tspan><tspan font-size="64" x="-402.02" y="641">y</tspan><tspan font-size="43" x="-372.802" y="656">0</tspan><tspan font-size="64" x="-351.031" y="641">,</tspan><tspan font-size="64" x="-320.666" y="641">z</tspan><tspan font-size="43" x="-295.458" y="656">0</tspan><tspan font-size="64" x="-273.687" y="641">)</tspan><tspan font-size="64" x="442.74" y="-491">(x, y, z)</tspan></text></g></svg>